<?xml version="1.0" encoding="utf-8"?>
<!-- Generator: Adobe Illustrator 24.0.1, SVG Export Plug-In . SVG Version: 6.00 Build 0)  -->
<svg version="1.1" id="Calque_1" xmlns="http://www.w3.org/2000/svg" xmlns:xlink="http://www.w3.org/1999/xlink" x="0px" y="0px"
	 viewBox="0 0 30 30" style="enable-background:new 0 0 30 30;" xml:space="preserve">
<style type="text/css">
	.st0{fill: #f29104;}
</style>
<path class="st0" d="M28.35,13.35l-11.7,0l0-11.7C16.65,0.74,15.91,0,15,0c-0.46,0-0.87,0.18-1.17,0.48
	c-0.3,0.3-0.48,0.71-0.48,1.17l0,11.7l-11.7,0C0.74,13.35,0,14.09,0,15c0,0.46,0.18,0.87,0.48,1.17s0.71,0.48,1.17,0.48l11.7,0
	l0,11.7c0,0.91,0.74,1.65,1.65,1.65c0.91,0,1.65-0.74,1.65-1.65l0-11.7l11.7,0c0.91,0,1.65-0.74,1.65-1.65
	C30,14.09,29.26,13.35,28.35,13.35z"/>
</svg>
