<?xml version="1.0" encoding="utf-8"?>
<!-- Generator: Adobe Illustrator 24.0.1, SVG Export Plug-In . SVG Version: 6.00 Build 0)  -->
<svg version="1.1" id="Calque_1" xmlns="http://www.w3.org/2000/svg" xmlns:xlink="http://www.w3.org/1999/xlink" x="0px" y="0px"
	 viewBox="0 0 29.8 29.9" style="enable-background:new 0 0 29.8 29.9;" xml:space="preserve">
<style type="text/css">
	.st0{fill:#F29105;}
</style>
<path class="st0" d="M29.2,11.8L15.9,0.4c-0.6-0.5-1.4-0.5-2,0L0.5,11.8c-0.6,0.5-0.7,1.5-0.2,2.1c0.5,0.6,1.5,0.7,2.1,0.2l10.9-9.3
	v23.6c0,0.8,0.7,1.5,1.5,1.5s1.5-0.7,1.5-1.5V4.8l10.9,9.3c0.3,0.2,0.6,0.4,1,0.4c0.4,0,0.8-0.2,1.1-0.5
	C29.9,13.3,29.9,12.4,29.2,11.8z"/>
</svg>
