<?xml version="1.0" encoding="utf-8"?>
<!-- Generator: Adobe Illustrator 24.0.1, SVG Export Plug-In . SVG Version: 6.00 Build 0)  -->
<!DOCTYPE svg PUBLIC "-//W3C//DTD SVG 1.1//EN" "http://www.w3.org/Graphics/SVG/1.1/DTD/svg11.dtd" [
	<!ENTITY ns_extend "http://ns.adobe.com/Extensibility/1.0/">
	<!ENTITY ns_ai "http://ns.adobe.com/AdobeIllustrator/10.0/">
	<!ENTITY ns_graphs "http://ns.adobe.com/Graphs/1.0/">
	<!ENTITY ns_vars "http://ns.adobe.com/Variables/1.0/">
	<!ENTITY ns_imrep "http://ns.adobe.com/ImageReplacement/1.0/">
	<!ENTITY ns_sfw "http://ns.adobe.com/SaveForWeb/1.0/">
	<!ENTITY ns_custom "http://ns.adobe.com/GenericCustomNamespace/1.0/">
	<!ENTITY ns_adobe_xpath "http://ns.adobe.com/XPath/1.0/">
]>
<svg version="1.1" id="Calque_1" xmlns:x="&ns_extend;" xmlns:i="&ns_ai;" xmlns:graph="&ns_graphs;"
	 xmlns="http://www.w3.org/2000/svg" xmlns:xlink="http://www.w3.org/1999/xlink" x="0px" y="0px" viewBox="0 0 313.871 283.465"
	 enable-background="new 0 0 313.871 283.465" xml:space="preserve">
<metadata>
	<sfw  xmlns="&ns_sfw;">
		<slices></slices>
		<sliceSourceBounds  bottomLeftOrigin="true" height="283.465" width="313.871" x="-139.435" y="296.768"></sliceSourceBounds>
	</sfw>
</metadata>
<g>
	<path fill="#FFFFFF" d="M151.296,0c2.274,0.16,4.548,0.323,6.823,0.48c6.763,0.465,13.368,1.8,19.829,3.794
		c9.072,2.801,17.537,6.904,25.361,12.299c12.079,8.33,21.71,18.897,28.902,31.685c5.169,9.19,8.629,19.003,10.492,29.366
		c1.354,7.53,1.8,15.143,1.246,22.773c-1.395,19.218-7.918,36.507-19.787,51.727c-9.29,11.913-20.793,21.069-34.498,27.416
		c-2.979,1.38-6.087,2.485-9.153,3.672c-1.323,0.512-2.699,0.542-4.045,0.031c-1.922-0.73-2.818-2.405-2.797-5.063
		c0.067-8.575,0.214-17.152,0.146-25.726c-0.042-5.241-1.078-10.285-4.359-14.602c-0.51-0.672-1.1-1.283-1.741-2.024
		c2.124-0.329,4.132-0.594,6.123-0.957c7.467-1.362,14.601-3.589,20.857-8.089c6.902-4.964,11.183-11.72,13.475-19.799
		c2.137-7.532,2.81-15.236,1.92-22.998c-0.826-7.206-3.695-13.622-8.503-19.11c-0.55-0.628-0.767-1.144-0.473-2.042
		c2.577-7.885,1.82-15.647-1.086-23.281c-0.146-0.382-0.829-0.756-1.289-0.792c-4.307-0.339-8.363,0.811-12.148,2.656
		c-4.122,2.009-8.049,4.419-12.081,6.617c-0.404,0.22-0.993,0.358-1.419,0.245c-8.566-2.278-17.285-3.215-26.127-2.888
		c-6.399,0.236-12.727,1.093-18.912,2.811c-0.839,0.233-1.473,0.197-2.241-0.308c-5.074-3.339-10.353-6.297-16.198-8.094
		c-2.5-0.768-5.054-1.246-7.701-1.088c-0.762,0.045-1.151,0.287-1.426,1.023c-2.88,7.711-3.535,15.507-0.9,23.414
		c0.256,0.768-0.062,1.159-0.452,1.598c-2.622,2.951-4.621,6.285-6.152,9.911c-1.549,3.669-2.497,7.511-2.688,11.466
		c-0.382,7.905,0.269,15.721,2.897,23.259c3.727,10.69,10.974,17.983,21.471,22.134c5.599,2.214,11.41,3.48,17.377,4.117
		c0.186,0.02,0.363,0.138,0.271,0.102c-1.311,2.337-2.735,4.603-3.871,7.004c-0.648,1.369-0.856,2.953-1.201,4.454
		c-0.175,0.764-0.478,1.23-1.286,1.536c-4.546,1.722-9.166,2.509-13.985,1.397c-5.154-1.19-8.833-4.377-11.605-8.712
		c-2.475-3.869-5.337-7.306-9.575-9.351c-2.703-1.304-5.52-1.68-8.428-0.886c-1.655,0.452-2.018,1.503-0.946,2.803
		c0.713,0.865,1.524,1.765,2.487,2.289c3.595,1.955,5.933,5.065,7.947,8.443c1.285,2.155,2.388,4.433,3.408,6.729
		c2.576,5.799,7.161,9.014,13.173,10.386c4.788,1.092,9.624,0.992,14.463,0.297c1.164-0.167,2.334-0.293,3.679-0.46
		c0,2.566-0.01,5.124,0.003,7.682c0.014,2.941-0.059,5.888,0.096,8.822c0.242,4.553-3.108,6.278-7.11,4.948
		c-8.185-2.721-15.8-6.625-22.904-11.528c-11.313-7.808-20.49-17.617-27.513-29.421c-6.198-10.418-10.197-21.632-12.029-33.631
		c-1.058-6.925-1.418-13.88-0.907-20.846c1.123-15.297,5.584-29.558,13.628-42.67c4.529-7.384,9.943-14.044,16.304-19.902
		c8.37-7.708,17.806-13.769,28.378-18.064c7.154-2.906,14.535-4.939,22.162-6.009c3.625-0.509,7.305-0.618,10.96-0.913
		c0.323-0.026,0.642-0.088,0.963-0.133C149.497,0,150.396,0,151.296,0z"/>
	<path fill="#FFFFFF" d="M0,240.553c0.247-3.126,0.378-6.265,0.763-9.374c0.956-7.727,3.004-15.076,7.908-21.354
		c4.138-5.297,9.639-8.403,16.089-9.94c4.388-1.046,8.849-1.307,13.352-1.142c5.43,0.198,10.822,0.62,16.021,2.335
		c1.189,0.392,2.315,0.978,3.47,1.472c0.741,0.317,0.882,0.91,0.714,1.615c-0.951,3.992-1.939,7.976-2.848,11.978
		c-0.249,1.098-0.879,1.342-1.776,1.031c-3.212-1.115-6.511-1.806-9.897-2.005c-3.992-0.235-7.997-0.421-11.943,0.475
		c-6.491,1.473-10.476,5.645-12.468,11.839c-2.046,6.36-2.076,12.912-1.593,19.483c0.306,4.163,1.136,8.217,3.072,11.968
		c2.853,5.529,7.509,8.221,13.629,8.316c2.884,0.045,5.774-0.282,8.661-0.463c0.394-0.025,0.779-0.183,1.211-0.29
		c0-5.35,0-10.652,0-16.145c-0.402,0-0.79,0-1.178,0c-2.819,0-5.638,0.009-8.457-0.004c-1.431-0.006-1.826-0.4-1.829-1.813
		c-0.009-3.84-0.009-7.681,0-11.521c0.004-1.592,0.284-1.873,1.832-1.874c8.407-0.004,16.815-0.005,25.222-0.001
		c1.44,0.001,1.635,0.186,1.635,1.636c0.006,13.115-0.002,26.23,0.017,39.345c0.001,0.78-0.232,1.294-0.914,1.686
		c-4.749,2.73-9.855,4.397-15.26,5.193c-1.005,0.148-2.008,0.311-3.011,0.467c-3.188,0-6.375,0-9.563,0
		c-0.357-0.074-0.712-0.159-1.072-0.219c-2.601-0.432-5.251-0.67-7.795-1.322c-7.512-1.925-13.578-5.988-17.715-12.663
		c-3.184-5.137-4.776-10.829-5.515-16.766C0.38,249.429,0.246,246.333,0,243.25C0,242.351,0,241.452,0,240.553z"/>
	<path fill="#FFFFFF" d="M290.085,283.465c-1.598-0.285-3.21-0.506-4.79-0.867c-3.692-0.845-7.076-2.385-10.203-4.867
		c-0.166,0.939-0.308,1.723-0.443,2.508c-0.263,1.524-0.515,1.741-2.094,1.744c-2.941,0.005-5.883,0.005-8.824,0
		c-1.503-0.003-1.839-0.35-1.839-1.895c-0.002-17.485-0.001-34.969-0.001-52.454c0-7.925,0-15.851,0-23.776
		c0-1.865,0.184-2.06,1.995-2.061c4.494-0.004,8.987-0.007,13.481,0.003c1.502,0.003,1.696,0.205,1.697,1.716
		c0.004,8.048,0.002,16.096,0.002,24.144c0,0.487,0,0.973,0,1.589c1.629-0.687,3.114-1.413,4.664-1.949
		c5.951-2.056,11.967-2.412,17.949-0.206c5.332,1.966,8.502,6.068,10.159,11.307c0.876,2.771,1.22,5.709,1.807,8.572
		c0.065,0.315,0.15,0.626,0.226,0.938c0,3.596,0,7.193,0,10.789c-0.079,0.476-0.194,0.95-0.231,1.429
		c-0.302,3.91-0.934,7.758-2.296,11.449c-1.999,5.417-5.426,9.425-11.213,10.962c-1.524,0.405-3.099,0.622-4.65,0.926
		C293.682,283.465,291.884,283.465,290.085,283.465z M278.818,254.654c0,3.675,0.055,7.351-0.032,11.024
		c-0.027,1.148,0.437,1.666,1.387,2.093c2.997,1.347,6.121,1.898,9.394,1.716c3.135-0.174,5.253-1.629,6.142-4.66
		c0.579-1.974,0.935-4.052,1.084-6.106c0.315-4.35,0.46-8.717-0.793-12.984c-0.972-3.309-3.397-5.666-6.137-5.917
		c-3.524-0.322-6.883,0.254-10.068,1.846c-0.717,0.358-1.004,0.781-0.995,1.596C278.84,247.059,278.818,250.856,278.818,254.654z"/>
	<path fill="#FFFFFF" d="M219.955,283.465c-1.466-0.303-2.948-0.542-4.394-0.92c-6.566-1.719-10.446-6.115-11.275-12.871
		c-0.283-2.301-0.445-4.631-0.454-6.949c-0.046-11.074-0.021-22.148-0.02-33.222c0-1.841,0.304-2.151,2.101-2.152
		c4.413-0.002,8.827-0.003,13.24,0.001c1.645,0.001,1.988,0.347,1.989,2.018c0.002,10.788-0.005,21.576,0.011,32.364
		c0.002,1.055,0.033,2.131,0.231,3.162c0.541,2.809,1.802,4.133,4.568,4.503c3.756,0.503,7.305-0.296,10.512-2.335
		c0.382-0.243,0.614-1,0.616-1.52c0.034-11.973,0.026-23.946,0.026-35.919c0-2.136,0.138-2.274,2.286-2.274
		c4.209-0.001,8.418-0.003,12.627,0.001c1.82,0.002,2.036,0.222,2.036,2.036c0.001,16.877,0.001,33.753,0,50.63
		c0,1.82-0.148,1.97-1.94,1.971c-2.738,0.002-5.476-0.029-8.213,0.015c-1.071,0.018-1.572-0.385-1.656-1.463
		c-0.058-0.748-0.282-1.483-0.458-2.348c-3.296,1.995-6.619,3.494-10.199,4.361c-1.416,0.343-2.85,0.609-4.276,0.91
		C224.859,283.465,222.407,283.465,219.955,283.465z"/>
	<path fill="#FFFFFF" d="M120.154,283.465c-2.007-0.311-4.041-0.502-6.015-0.956c-6.566-1.509-10.737-6.117-11.634-12.843
		c-0.285-2.135-0.446-4.301-0.465-6.455c-0.058-6.701-0.021-13.402-0.021-20.103c0-0.447,0-0.894,0-1.559c-1.067,0-2.069,0-3.07,0
		c-1.512,0-3.024-0.012-4.535,0.004c-0.845,0.009-1.337-0.365-1.344-1.218c-0.026-3.133-0.041-6.266-0.029-9.399
		c0.003-0.923,0.72-1.201,1.466-1.382c2.095-0.51,4.184-1.046,6.291-1.496c0.889-0.19,1.263-0.516,1.249-1.512
		c-0.062-4.412-0.028-8.826-0.026-13.239c0.001-1.492,0.136-1.643,1.578-1.646c4.658-0.008,9.316,0.013,13.974-0.016
		c0.989-0.006,1.379,0.328,1.369,1.355c-0.04,4.331,0.012,8.663-0.038,12.993c-0.012,1.018,0.292,1.343,1.315,1.324
		c3.104-0.058,6.21-0.023,9.316-0.02c1.471,0.002,1.754,0.247,1.761,1.668c0.017,3.637,0.017,7.273,0,10.91
		c-0.007,1.424-0.289,1.67-1.757,1.672c-3.105,0.004-6.211,0.037-9.316-0.019c-1.017-0.018-1.326,0.296-1.319,1.319
		c0.041,6.619,0.113,13.24-0.01,19.858c-0.089,4.834,2.607,6.49,6.554,6.741c1.415,0.09,2.848-0.143,4.273-0.193
		c1.543-0.054,1.75,0.141,1.755,1.63c0.011,3.105-0.051,6.212,0.029,9.316c0.033,1.293-0.483,1.853-1.69,2.053
		c-2.245,0.371-4.479,0.805-6.718,1.213C122.115,283.465,121.135,283.465,120.154,283.465z"/>
	<path fill="#FFFFFF" d="M179.254,247.48c-7.8,0-15.463,0-23.303,0c0,0.492,0,0.964,0,1.436c0,10.337,0.001,20.674-0.001,31.011
		c0,1.773-0.284,2.054-2.054,2.055c-4.413,0.001-8.825,0.003-13.238-0.001c-1.556-0.001-1.863-0.305-1.863-1.839
		c-0.001-25.496-0.001-50.991,0-76.487c0-1.598,0.247-1.857,1.824-1.86c4.494-0.007,8.989-0.006,13.483,0
		c1.57,0.002,1.847,0.28,1.847,1.855c0.004,8.907,0.002,17.814,0.002,26.721c0,0.4,0,0.799,0,1.277c7.772,0,15.435,0,23.303,0
		c0-0.45,0-0.918,0-1.387c0-8.866-0.001-17.733,0.001-26.599c0-1.602,0.247-1.865,1.816-1.867c4.535-0.007,9.071-0.008,13.606,0.001
		c1.449,0.003,1.732,0.287,1.732,1.708c0.003,25.577,0.003,51.155-0.001,76.732c0,1.343-0.4,1.741-1.744,1.743
		c-4.576,0.007-9.152,0.008-13.728-0.001c-1.394-0.003-1.699-0.325-1.699-1.752c0.003-10.417,0.011-20.833,0.017-31.25
		C179.254,248.498,179.254,248.018,179.254,247.48z"/>
	<path fill="#FFFFFF" d="M87.341,254.569c0,8.292,0.002,16.584-0.002,24.876c-0.001,2.253-0.266,2.508-2.538,2.508
		c-4.044,0.001-8.088,0.004-12.132-0.001c-1.941-0.002-2.494-0.524-2.495-2.456c-0.008-16.788-0.007-33.576-0.001-50.365
		c0-1.39,0.449-1.83,1.818-1.833c4.534-0.007,9.068-0.006,13.602-0.001c1.579,0.002,1.743,0.167,1.744,1.783
		C87.343,237.577,87.341,246.073,87.341,254.569z"/>
	<path fill="#FFFFFF" d="M78.805,222.74c-5.396-0.161-9.546-4.512-9.389-9.846c0.157-5.309,4.636-9.617,9.908-9.335
		c5.18,0.277,9.061,4.176,9.12,9.615C88.504,218.572,84.01,222.895,78.805,222.74z"/>
</g>
</svg>
