<?xml version="1.0" encoding="utf-8"?>
<!-- Generator: Adobe Illustrator 24.0.1, SVG Export Plug-In . SVG Version: 6.00 Build 0)  -->
<!DOCTYPE svg PUBLIC "-//W3C//DTD SVG 1.1//EN" "http://www.w3.org/Graphics/SVG/1.1/DTD/svg11.dtd" [
	<!ENTITY ns_extend "http://ns.adobe.com/Extensibility/1.0/">
	<!ENTITY ns_ai "http://ns.adobe.com/AdobeIllustrator/10.0/">
	<!ENTITY ns_graphs "http://ns.adobe.com/Graphs/1.0/">
	<!ENTITY ns_vars "http://ns.adobe.com/Variables/1.0/">
	<!ENTITY ns_imrep "http://ns.adobe.com/ImageReplacement/1.0/">
	<!ENTITY ns_sfw "http://ns.adobe.com/SaveForWeb/1.0/">
	<!ENTITY ns_custom "http://ns.adobe.com/GenericCustomNamespace/1.0/">
	<!ENTITY ns_adobe_xpath "http://ns.adobe.com/XPath/1.0/">
]>
<svg version="1.1" id="Calque_1" xmlns:x="&ns_extend;" xmlns:i="&ns_ai;" xmlns:graph="&ns_graphs;"
	 xmlns="http://www.w3.org/2000/svg" xmlns:xlink="http://www.w3.org/1999/xlink" x="0px" y="0px" viewBox="0 0 409.821 409.652"
	 enable-background="new 0 0 409.821 409.652" xml:space="preserve">
<metadata>
	<sfw  xmlns="&ns_sfw;">
		<slices></slices>
		<sliceSourceBounds  bottomLeftOrigin="true" height="409.652" width="409.821" x="0" y="0"></sliceSourceBounds>
	</sfw>
</metadata>
<path fill="#FFFFFF" d="M204.927,0C92.387,0.019,0.678,91.282,0.004,202.896c-0.688,113.982,91.259,206.548,204.563,206.756
	c113.424,0.208,205.509-92.109,205.254-205.713C409.568,91.621,317.837-0.019,204.927,0z M195.443,19.36
	c0,34.142,0,68.226,0,102.723c-23.124-0.754-45.54-4.694-67.763-11.695C138.617,80.26,181.253,22.961,195.443,19.36z
	 M162.251,23.788c-22.509,24.132-39.633,50.557-52.504,81.142C94.836,97.202,80.36,89.701,65.368,81.931
	C92.061,52.46,123.658,33.422,162.251,23.788z M53.714,96.593c16.561,8.597,32.842,17.048,49.042,25.458
	c-2.827,11.745-6.26,23.757-8.508,35.987c-2.251,12.246-3.318,24.709-4.934,37.31c-22.903,0-46.205,0-69.987,0
	C21.217,158.767,32.973,125.888,53.714,96.593z M53.793,313.017C32.948,283.913,21.412,251,19.282,214.381
	c23.473,0,46.825,0,70.555,0c1.028,25.03,5.16,49.545,12.847,73.075C86.47,295.934,70.424,304.322,53.793,313.017z M65.366,327.598
	c14.885-7.693,29.088-15.035,43.681-22.577c12.339,29.981,28.965,56.139,50.766,80.138
	C122.317,375.368,91.555,356.505,65.366,327.598z M108.374,214.344c29.006,0,57.881,0,87.027,0c0,18.025,0,36.161,0,53.954
	c-12.737,1.555-25.424,2.594-37.912,4.771c-12.366,2.156-24.533,5.458-37.311,8.378C113.14,259.95,109.261,237.57,108.374,214.344z
	 M195.414,390.886c-2.044-0.75-4.236-0.95-5.552-2.128c-27.397-24.527-48.125-53.834-62.435-87.694
	c-0.18-0.427-0.298-0.88-0.56-1.664c22.333-6.965,44.969-11.253,68.546-11.853C195.414,321.896,195.414,356.031,195.414,390.886z
	 M195.47,195.339c-28.974,0-57.747,0-86.513,0c-1.349-11.905,5.493-51.921,12.352-67.522c23.991,7.466,48.589,11.896,74.161,12.821
	C195.47,159.06,195.47,177.105,195.47,195.339z M356.129,96.617c20.675,29.048,32.425,61.956,34.403,98.66
	c-23.529,0-46.819,0-70.601,0c-1.196-25.032-5.48-49.615-13.408-72.929C323.249,113.672,339.46,105.264,356.129,96.617z
	 M343.941,81.319c-14.04,9.107-28.548,16.554-43.161,22.45c-7.837-14.101-14.852-28.425-23.455-41.723
	c-8.569-13.245-18.731-25.458-27.984-37.841C286.065,33.315,317.716,52.383,343.941,81.319z M214.506,19.426
	c13.478,2.837,56.061,59.951,67.497,90.46c-7.577,4.883-49.293,12.363-67.497,12.042C214.506,87.77,214.506,53.605,214.506,19.426z
	 M214.371,140.642c25.436-0.871,50.139-5.284,74.487-12.922c7.451,22.102,11.418,44.431,12.56,67.573c-29.052,0-57.831,0-87.047,0
	C214.371,177.07,214.371,159.024,214.371,140.642z M301.474,214.262c-0.867,23.175-4.739,45.622-12.007,67.815
	c-24.609-7.898-49.355-12.191-74.975-13.111c0-18.231,0-36.364,0-54.705C243.366,214.262,272.24,214.262,301.474,214.262z
	 M220.474,388.36c-1.442,1.295-3.638,1.749-6.107,2.879c0-35.196,0-69.233,0-103.674c23.508,0.536,46.134,4.828,68.999,11.916
	c-3.509,7.302-6.669,14.431-10.292,21.317C259.581,346.447,242.04,368.992,220.474,388.36z M251.679,384.754
	c8.958-12.247,18.826-24.375,27.14-37.487c8.3-13.089,15.044-27.165,22.979-41.744c13.561,7.001,27.762,14.333,42.692,22.041
	C318.397,356.47,287.585,375.356,251.679,384.754z M307.757,287.734c2.641-11.567,5.908-23.699,8.083-36.022
	c2.165-12.266,3.235-24.725,4.823-37.405c22.918,0,46.296,0,69.898,0c-2.085,36.6-13.639,69.589-34.499,98.698
	C339.713,304.452,323.739,296.095,307.757,287.734z"/>
</svg>
