<?xml version="1.0" encoding="utf-8"?>
<!-- Generator: Adobe Illustrator 24.0.1, SVG Export Plug-In . SVG Version: 6.00 Build 0)  -->
<svg version="1.1" id="Calque_1" xmlns="http://www.w3.org/2000/svg" xmlns:xlink="http://www.w3.org/1999/xlink" x="0px" y="0px"
	 viewBox="0 0 82.9 75.8" style="enable-background:new 0 0 82.9 75.8;" xml:space="preserve">
<style type="text/css">
	.st0{fill:#FFFFFF;}
</style>
<g id="XMLID_3001_">
	<g id="XMLID_5_">
		<path id="XMLID_28_" class="st0" d="M6.8,75.6v-5.5l-2.5,2.4l-2.5-2.4v5.5H0v-9h0.6L4.3,70L8,66.6h0.6v9H6.8z"/>
		<path id="XMLID_25_" class="st0" d="M15.8,73.9h-3.6l-0.8,1.7h-2l4.5-9h0.5l4.2,9h-1.9L15.8,73.9z M15,72.1l-0.9-2l-1,2H15z"/>
		<path id="XMLID_22_" class="st0" d="M23.2,75.6L21.5,72h-0.9v3.6h-1.8v-9h3.3c1.5,0,2.6,1.2,2.6,2.7c0,1.1-0.6,2-1.5,2.5l1.7,3.9
			H23.2z M20.6,68.4v1.8h1.6c0.5,0,0.9-0.4,0.9-0.9c0-0.5-0.4-0.9-0.9-0.9H20.6z"/>
		<path id="XMLID_20_" class="st0" d="M31.7,68.8c-1.7-1.1-4.3-0.1-4.3,2.3c0,2.5,2.7,3.6,4.4,2.3l1.1,1.3c-0.8,0.7-1.8,1.1-2.9,1.1
			c-2.5,0-4.6-2.1-4.6-4.7c0-2.6,2.1-4.7,4.6-4.7c1.1,0,2,0.4,2.8,1L31.7,68.8z"/>
		<path id="XMLID_18_" class="st0" d="M43.6,68.8c-1.7-1.1-4.3-0.1-4.3,2.3c0,2.5,2.7,3.6,4.4,2.3l1.1,1.3c-0.8,0.7-1.8,1.1-2.9,1.1
			c-2.5,0-4.6-2.1-4.6-4.7c0-2.6,2-4.7,4.6-4.7c1.1,0,2,0.4,2.8,1L43.6,68.8z"/>
		<path id="XMLID_16_" class="st0" d="M51,66.6h1.8v9H51v-3.8h-3.3v3.8H46v-9h1.8V70H51V66.6z"/>
		<path id="XMLID_13_" class="st0" d="M59.6,73.9H56l-0.8,1.7h-2l4.5-9h0.5l4.2,9h-2L59.6,73.9z M58.8,72.1l-0.9-2l-1,2H58.8z"/>
		<path id="XMLID_11_" class="st0" d="M69,66.6l-2.9,5.7v3.3h-1.8v-3.3l-2.9-5.7h1.9l1.8,3.4l1.8-3.4H69z"/>
		<path id="XMLID_9_" class="st0" d="M75.7,68.4h-4.1V70H75v1.8h-3.4v2h4.1v1.8h-5.8v-9h5.9V68.4z"/>
		<path id="XMLID_6_" class="st0" d="M81,75.6L79.4,72h-0.9v3.6h-1.8v-9H80c1.5,0,2.6,1.2,2.6,2.7c0,1.1-0.6,2-1.5,2.5l1.7,3.9H81z
			 M78.5,68.4v1.8H80c0.5,0,0.9-0.4,0.9-0.9c0-0.5-0.4-0.9-0.9-0.9H78.5z"/>
	</g>
	<g id="XMLID_1_">
		<polygon id="XMLID_4_" class="st0" points="24.5,31.1 28.9,39.8 33.3,31.1 28.9,22.4 24.5,13.7 20.2,22.4 20.2,22.4 0,62.6 
			8.7,62.6 24.5,31.1 		"/>
		<polygon id="XMLID_3_" class="st0" points="62.3,22.4 55.4,8.7 55.4,8.7 55.4,8.7 51,0 46.7,8.7 39.8,22.4 19.6,62.6 28.3,62.6 
			41.3,36.9 41.3,36.9 51,17.4 60.8,36.9 73.7,62.6 82.5,62.6 		"/>
		<polygon id="XMLID_2_" class="st0" points="56.2,56.2 56.5,56.8 45.6,56.8 51,45.9 53,49.8 56.2,43.4 51,33.1 47.8,39.5 
			47.8,39.5 39.1,56.8 39.1,56.8 36.6,61.8 36.2,62.6 36.2,62.6 37.3,62.6 42.7,62.6 42.7,62.6 59.4,62.5 59.4,62.6 65.8,62.6 
			59.4,49.8 		"/>
	</g>
</g>
</svg>
